<svg width="14" height="16" viewBox="0 0 14 16" fill="none" xmlns="http://www.w3.org/2000/svg">
<path d="M9.4998 14.5664C9.53313 14.8164 9.4498 15.0831 9.25813 15.2581C8.93313 15.5831 8.40813 15.5831 8.08313 15.2581L4.74147 11.9164C4.5498 11.7248 4.46647 11.4664 4.4998 11.2248V6.95809L0.508133 1.84976C0.2248 1.49142 0.291467 0.966423 0.6498 0.683089C0.808133 0.566423 0.983133 0.499756 1.16647 0.499756H12.8331C13.0165 0.499756 13.1915 0.566423 13.3498 0.683089C13.7081 0.966423 13.7748 1.49142 13.4915 1.84976L9.4998 6.95809V14.5664ZM2.86647 2.16642L6.16647 6.38309V10.9831L7.83313 12.6498V6.37476L11.1331 2.16642H2.86647Z" fill="#2C2C2C"/>
</svg>
