<svg width="24" height="24" viewBox="0 0 24 24" fill="none" xmlns="http://www.w3.org/2000/svg">
<path d="M15.8601 4.39012V19.3901C15.8601 21.0601 17.0001 22.0001 18.2501 22.0001C19.3901 22.0001 20.6401 21.2101 20.6401 19.3901V4.50012C20.6401 2.96012 19.5001 2.00012 18.2501 2.00012C17.0001 2.00012 15.8601 3.06012 15.8601 4.39012ZM9.61011 12.0001V19.3901C9.61011 21.0701 10.7701 22.0001 12.0001 22.0001C13.1401 22.0001 14.3901 21.2101 14.3901 19.3901V12.1101C14.3901 10.5701 13.2501 9.61012 12.0001 9.61012C10.7501 9.61012 9.61011 10.6701 9.61011 12.0001ZM5.75011 17.2301C7.07011 17.2301 8.14011 18.3001 8.14011 19.6101C8.14011 20.9301 7.07011 22.0001 5.75011 22.0001C4.43011 22.0001 3.36011 20.9301 3.36011 19.6101C3.36011 18.3001 4.43011 17.2301 5.75011 17.2301Z" fill="white"/>
</svg>
