<svg width="80" height="81" viewBox="0 0 80 81" fill="none" xmlns="http://www.w3.org/2000/svg">
<rect y="0.5" width="80" height="80" rx="40" fill="#ECF0FD"/>
<path d="M39.9997 29.8334C42.933 29.8334 45.333 32.2334 45.333 35.1667C45.333 37.9667 42.533 42.5001 39.9997 45.7001C37.4663 42.3667 34.6663 37.9667 34.6663 35.1667C34.6663 32.2334 37.0663 29.8334 39.9997 29.8334ZM39.9997 27.1667C35.5997 27.1667 31.9997 30.7667 31.9997 35.1667C31.9997 41.1667 39.9997 49.8334 39.9997 49.8334C39.9997 49.8334 47.9997 41.0334 47.9997 35.1667C47.9997 30.7667 44.3997 27.1667 39.9997 27.1667ZM39.9997 32.5001C38.533 32.5001 37.333 33.7001 37.333 35.1667C37.333 36.6334 38.533 37.8334 39.9997 37.8334C41.4663 37.8334 42.6663 36.6334 42.6663 35.1667C42.6663 33.7001 41.4663 32.5001 39.9997 32.5001ZM50.6663 49.8334C50.6663 52.7667 45.8663 55.1667 39.9997 55.1667C34.133 55.1667 29.333 52.7667 29.333 49.8334C29.333 48.1001 30.933 46.6334 33.4663 45.5667L34.2663 46.7667C32.933 47.4334 31.9997 48.2334 31.9997 49.1667C31.9997 51.0334 35.5997 52.5001 39.9997 52.5001C44.3997 52.5001 47.9997 51.0334 47.9997 49.1667C47.9997 48.2334 47.0663 47.4334 45.5997 46.7667L46.3997 45.5667C49.0663 46.6334 50.6663 48.1001 50.6663 49.8334Z" fill="#1D48E7"/>
</svg>
